<?xml version="1.0" standalone="no"?>
<!DOCTYPE svg PUBLIC "-//W3C//DTD SVG 20010904//EN"
 "http://www.w3.org/TR/2001/REC-SVG-20010904/DTD/svg10.dtd">
<svg version="1.0" xmlns="http://www.w3.org/2000/svg"
 width="474.000000pt" height="474.000000pt" viewBox="0 0 474.000000 474.000000"
 preserveAspectRatio="xMidYMid meet">
<metadata>
Created by potrace 1.14, written by Peter Selinger 2001-2017
</metadata>
<g transform="translate(0.000000,474.000000) scale(0.100000,-0.100000)"
fill="#000000" stroke="none">
<path d="M1460 4008 c-155 -26 -310 -185 -585 -602 -290 -441 -534 -923 -685
-1357 -56 -159 -113 -356 -124 -429 -3 -19 -7 -44 -10 -55 -5 -27 -17 -112
-21 -155 -6 -51 -6 -281 -1 -306 2 -12 7 -39 10 -60 16 -99 73 -218 125 -262
56 -46 150 -61 242 -37 327 84 835 605 1191 1221 l64 112 94 -137 c199 -289
297 -418 391 -511 104 -103 107 -105 160 -136 176 -103 349 -41 560 202 75 86
85 99 175 221 49 65 90 120 92 123 2 3 18 -13 35 -35 183 -230 432 -481 631
-634 86 -67 265 -190 292 -202 5 -2 43 -22 84 -44 159 -83 258 -106 347 -80
98 29 154 112 181 264 10 55 8 249 -2 309 -3 17 -8 44 -11 60 -2 15 -14 63
-25 107 -12 44 -23 90 -25 102 -10 44 -78 231 -118 323 -117 269 -262 499
-381 607 -114 102 -242 130 -355 77 -76 -35 -189 -154 -276 -289 -38 -61 -124
-189 -189 -285 -66 -96 -134 -197 -152 -223 l-32 -49 -74 99 c-200 266 -361
513 -662 1013 -428 710 -536 863 -689 976 -87 65 -168 87 -257 72z"/>
<path d="M3790 3615 c-160 -43 -262 -188 -247 -353 9 -111 87 -221 192 -272
70 -33 198 -35 268 -2 250 114 271 450 37 594 -66 40 -172 55 -250 33z"/>
</g>
</svg>
